#!OML:ASF X:\für Bonn\!DataBase\2005_08_10_Bjorn_Final\c3d\bjorn.ASF
:FULLY-SPECIFIED
:DEGREES
229
root -4.7506 18.042 6.78102 -391.308 426.229 -396.323
lowerback 2.90516 3.94003 10.5005
upperback 7.7163 5.28833 2.80449
thorax 7.23911 3.28157 -2.62997
lowerneck -6.82283 -2.35632 -0.448332
upperneck -0.701171 -3.0468 -1.41877
head 0.899639 -1.52939 -0.445731
rclavicle 7.93151e-014 2.38542e-014
rhumerus -28.327 13.9264 -97.5601
rradius 106.911
rwrist 2.33317
rhand -34.3397 33.0854
rfingers 7.12502
rthumb -7.50746 3.23864
lclavicle 7.93151e-014 2.38542e-014
lhumerus -54.1329 -22.4285 103.695
lradius 85.2259
lwrist -16.4973
lhand -54.4102 -29.753
lfingers 7.12502
lthumb -26.8159 -1.63426
rfemur 5.95568 -4.73004 21.6653
rtibia 28.5677
rfoot -22.2875 12.6798
rtoes -31.0131
lfemur -37.1268 9.27916 -17.7952
ltibia 70.8889
lfoot -18.8659 1.45455
ltoes -13.6222
230
root -4.45485 18.1701 6.88013 -392.035 426.752 -397.255
lowerback 2.37794 4.31518 10.492
upperback 7.54444 5.73195 2.56144
thorax 7.44166 3.50303 -2.81435
lowerneck -6.71113 -2.63416 -0.703284
upperneck -0.389601 -3.40789 -0.94013
head 0.989088 -1.70565 -0.268081
rclavicle -2.00773e-014 -2.18663e-014
rhumerus -28.1408 14.5365 -97.6567
rradius 107.415
rwrist 2.54276
rhand -33.887 33.0355
rfingers 7.12502
rthumb -7.07046 3.17361
lclavicle -2.00773e-014 -2.18663e-014
lhumerus -54.5489 -22.5894 103.126
lradius 85.4069
lwrist -16.9801
lhand -54.7216 -29.8511
lfingers 7.12502
lthumb -27.1139 -1.77835
rfemur 8.04571 -5.39919 21.5112
rtibia 25.8362
rfoot -19.0793 12.7413
rtoes -28.9606
lfemur -37.7036 9.2932 -18.2442
ltibia 67.6264
lfoot -18.2931 0.614667
ltoes -10.122
231
root -4.15877 18.2937 6.97853 -392.506 427.352 -397.937
lowerback 1.854 4.72134 10.3545
upperback 7.31141 6.22633 2.20997
thorax 7.58229 3.73914 -3.03774
lowerneck -6.412 -2.91052 -0.752458
upperneck -0.15835 -3.78923 -0.440627
head 1.02101 -1.89102 -0.114921
rclavicle 8.5378e-014 2.38542e-015
rhumerus -28.1404 14.977 -97.9069
rradius 107.821
rwrist 2.658
rhand -33.3503 33.0221
rfingers 7.12502
rthumb -6.55243 3.14351
lclavicle 8.5378e-014 2.38542e-015
lhumerus -55.1318 -22.9624 102.547
lradius 85.7036
lwrist -17.2386
lhand -54.8539 -29.442
lfingers 7.12502
lthumb -27.2404 -1.38909
rfemur 10.0002 -5.99093 21.2387
rtibia 23.2012
rfoot -15.9169 12.218
rtoes -28.3821
lfemur -38.1283 9.2886 -18.8628
ltibia 64.1674
lfoot -17.5855 -0.044682
ltoes -7.45606
232
root -3.86166 18.4089 7.07452 -392.942 427.97 -398.515
lowerback 1.39117 5.11186 10.1547
upperback 7.07402 6.71296 1.8483
thorax 7.67844 3.96651 -3.23879
lowerneck -5.96078 -3.14627 -0.794053
upperneck 0.0033254 -4.12055 0.0901825
head 1.00791 -2.05073 0.0515251
rclavicle -3.49861e-014 -5.56597e-015
rhumerus -28.2684 15.3923 -98.193
rradius 107.986
rwrist 2.58534
rhand -32.7299 33.1662
rfingers 7.12502
rthumb -5.95347 3.26983
lclavicle -3.49861e-014 -5.56597e-015
lhumerus -55.7357 -23.4026 102.002
lradius 86.0652
lwrist -17.3333
lhand -54.9011 -28.8693
lfingers 7.12502
lthumb -27.2856 -0.823438
rfemur 11.8774 -6.67978 20.8239
rtibia 20.7987
rfoot -12.883 11.5919
rtoes -30.2178
lfemur -38.2964 9.33334 -19.5561
ltibia 60.6003
lfoot -16.7284 -0.46457
ltoes -6.51683
233
root -3.56645 18.5057 7.16935 -393.659 428.575 -399.252
lowerback 1.12465 5.42258 9.94314
upperback 6.79559 7.1199 1.52601
thorax 7.59974 4.14663 -3.41926
lowerneck -5.31828 -3.2962 -0.758352
upperneck 0.139308 -4.34324 0.556434
head 0.952418 -2.15804 0.19241
rclavicle -3.18055e-015 -1.55052e-014
rhumerus -28.6467 15.9211 -98.5804
rradius 108.025
rwrist 2.55198
rhand -31.9982 33.2311
rfingers 7.12502
rthumb -5.24702 3.31607
lclavicle -3.18055e-015 -1.55052e-014
lhumerus -56.4247 -23.7238 101.524
lradius 86.4387
lwrist -17.1582
lhand -54.8536 -28.4274
lfingers 7.12502
lthumb -27.2401 -0.374414
rfemur 13.6903 -7.31057 20.4339
rtibia 18.7962
rfoot -9.89129 11.0145
rtoes -31.7162
lfemur -38.1638 9.46391 -20.2101
ltibia 57.0252
lfoot -15.7067 -0.835863
ltoes -6.71564
234
root -3.27224 18.5872 7.26359 -394.527 429.153 -400.057
lowerback 0.93209 5.67433 9.71127
upperback 6.55057 7.45729 1.22107
thorax 7.50117 4.29288 -3.5805
lowerneck -4.68509 -3.38668 -0.612252
upperneck 0.263244 -4.48928 0.973908
head 0.891726 -2.22804 0.302515
rclavicle -6.32135e-014 1.11319e-014
rhumerus -29.1471 16.5975 -99.1184
rradius 108.142
rwrist 2.48057
rhand -31.2811 32.8484
rfingers 7.12502
rthumb -4.55453 2.91734
lclavicle -6.32135e-014 1.11319e-014
lhumerus -57.0131 -23.9228 101.025
lradius 86.8006
lwrist -16.7766
lhand -54.7708 -28.2519
lfingers 7.12502
lthumb -27.161 -0.186569
rfemur 15.2478 -7.72862 20.1045
rtibia 17.4555
rfoot -7.21231 10.3825
rtoes -33.0331
lfemur -37.8257 9.72062 -20.8691
ltibia 53.5932
lfoot -14.6701 -1.15462
ltoes -6.70269
235
root -2.97924 18.6569 7.35521 -395.497 429.73 -401.065
lowerback 0.609211 5.86924 9.43052
upperback 6.30713 7.70277 0.970314
thorax 7.45152 4.39027 -3.65148
lowerneck -4.06405 -3.41565 -0.340444
upperneck 0.370633 -4.5521 1.22264
head 0.820337 -2.25863 0.342591
rclavicle -1.17283e-014 -1.74931e-014
rhumerus -29.8439 17.4287 -99.7829
rradius 108.335
rwrist 2.45959
rhand -30.763 32.131
rfingers 7.12502
rthumb -4.05428 2.1898
lclavicle -1.17283e-014 -1.74931e-014
lhumerus -57.5154 -23.9231 100.566
lradius 87.1311
lwrist -16.2213
lhand -54.6748 -28.5002
lfingers 7.12502
lthumb -27.0691 -0.420552
rfemur 16.4242 -7.89712 19.9281
rtibia 16.6216
rfoot -4.79856 9.62575
rtoes -34.0668
lfemur -37.5457 10.0481 -21.5452
ltibia 50.3127
lfoot -13.6141 -1.45847
ltoes -6.12049
236
root -2.69244 18.6945 7.44572 -396.503 430.304 -402.138
lowerback 0.268401 6.04625 9.1002
upperback 6.04585 7.92366 0.760971
thorax 7.37511 4.46997 -3.6531
lowerneck -3.21791 -3.40813 -0.0652929
upperneck 0.26234 -4.55674 1.45084
head 0.643689 -2.26245 0.383259
rclavicle 2.92213e-014 1.27222e-014
rhumerus -30.6673 18.1824 -100.427
rradius 108.435
rwrist 2.51849
rhand -30.2705 31.562
rfingers 7.12502
rthumb -3.57865 1.61232
lclavicle 2.92213e-014 1.27222e-014
lhumerus -57.9545 -23.807 100.176
lradius 87.449
lwrist -15.6187
lhand -54.5168 -29.0058
lfingers 7.12502
lthumb -26.9179 -0.902732
rfemur 17.2509 -7.81197 19.8395
rtibia 16.3678
rfoot -2.71064 8.82752
rtoes -34.6673
lfemur -37.4582 10.4612 -22.2906
ltibia 47.3274
lfoot -12.5214 -1.70159
ltoes -5.52513
237
root -2.3973 18.7534 7.52955 -397.617 430.88 -403.372
lowerback -0.166848 6.19507 8.75139
upperback 5.80465 8.09787 0.584326
thorax 7.36014 4.52721 -3.60118
lowerneck -2.05017 -3.38633 0.199581
upperneck -0.319166 -4.5232 1.61721
head 0.270175 -2.25315 0.417753
rclavicle 2.0276e-014 1.19271e-014
rhumerus -31.4754 18.8709 -100.955
rradius 108.415
rwrist 2.67104
rhand -29.5493 31.4426
rfingers 7.12502
rthumb -2.88223 1.48235
lclavicle 2.0276e-014 1.19271e-014
lhumerus -58.2801 -23.6748 99.8146
lradius 87.7564
lwrist -15.1409
lhand -54.529 -29.643
lfingers 7.12502
lthumb -26.9296 -1.54168
rfemur 17.7177 -7.57566 19.8456
rtibia 16.6361
rfoot -0.940774 8.02514
rtoes -34.8547
lfemur -37.3246 10.8678 -23.0147
ltibia 44.5345
lfoot -11.5052 -2.01971
ltoes -4.26985
